<svg version="1.2" xmlns="http://www.w3.org/2000/svg" viewBox="0 0 100 100" width="500" height="500">
	<title>nat logo</title>
	<defs>
		<linearGradient id="g1" x2="1" gradientUnits="userSpaceOnUse" gradientTransform="matrix(53.896,76.026,-43.748,31.013,21.104,11.966)">
			<stop offset="0" stop-color="#738121"/>
			<stop offset="1" stop-color="#716c58"/>
		</linearGradient>
	</defs>
	<style>
		.s0 { fill: url(#g1) } 
	</style>
	<g id="Layer 1">
		<path class="s0" d="m36 40.9c0 3.2 0 6.3 0 9.4 0 0.4 0 0.8-0.1 1.2-0.6 3.2-1.7 4.3-5.2 4.7-1.9 0.3-3.8 0.3-5.7-0.2-2.6-0.5-3.9-2.3-3.9-5.2q0-9 0-17.9 0-7.4 0-14.7c0-4 1.1-5.4 5.1-6 2.1-0.3 4.3-0.3 6.4 0.2 1.6 0.5 2.5 1.5 2.9 3 0.4 1.3 0.5 1.3 1.5 0.4 1.9-1.7 3.9-3 6.4-3.5 2.9-0.6 5.7-0.3 8.3 0.7 7.3 2.6 11.2 8.1 13.1 15.3 0.6 2.5 0.6 4.9 0.6 7.4 0 2.5 0 5 0 7.5 0 0.7 0.2 1 0.9 0.9 0.8 0 1.6 0 2.4-0.1q2.3-0.3 4.6 0c2.8 0.2 4.1 1.4 4.6 4.1q0.7 3.1 0.1 6.2c-0.6 2.8-1.4 4.1-5.3 4.4-2 0.2-4.1 0-6.1-0.2-0.9-0.1-1.2 0.2-1.2 1.1 0 3.6 0 7.1 0 10.7 0 0.7 0.2 1.3 0.3 2 0.3 0.9 0.9 1.4 1.8 1.7 1.1 0.2 2.2 0.1 3.2 0.1 3.3 0.1 5.1 1.9 5.2 5.1 0 1.7 0.1 3.4-0.3 5.1-0.5 2-1.7 3.3-3.6 3.6-5.8 0.7-11.5 0.3-16.4-3.4-2.6-1.9-3.8-4.7-4.4-7.7-0.5-2.2-0.7-4.4-0.7-6.6 0.1-3.6 0-7.1 0.1-10.6 0-0.9-0.4-1.2-1.2-1q-0.9 0.2-1.9 0.1c-2.3 0-3.9-1.2-4.3-3.4-0.6-2.8-0.5-5.6 0.2-8.3 0.6-2.7 3.3-3.3 5.2-3q0.4 0 0.9 0.1c0.5 0 0.9-0.2 0.9-0.8-0.1-3.5 0.1-7.1-0.1-10.6-0.2-3.3-3-5.6-6.4-5.8-4.4-0.2-7.6 2.5-7.8 6.3-0.1 0.5-0.1 0.9-0.1 1.4 0 2.1 0 4.2 0 6.3z"/>
	</g>
</svg>
